<svg width="14" height="14" viewBox="0 0 14 14" fill="none" xmlns="http://www.w3.org/2000/svg">
<g id="eva:calendar-outline">
<path id="Vector" d="M10.5 2.33268H9.91667V1.74935C9.91667 1.59464 9.85521 1.44627 9.74581 1.33687C9.63642 1.22747 9.48804 1.16602 9.33333 1.16602C9.17862 1.16602 9.03025 1.22747 8.92085 1.33687C8.81146 1.44627 8.75 1.59464 8.75 1.74935V2.33268H5.25V1.74935C5.25 1.59464 5.18854 1.44627 5.07915 1.33687C4.96975 1.22747 4.82138 1.16602 4.66667 1.16602C4.51196 1.16602 4.36358 1.22747 4.25419 1.33687C4.14479 1.44627 4.08333 1.59464 4.08333 1.74935V2.33268H3.5C3.03587 2.33268 2.59075 2.51706 2.26256 2.84525C1.93437 3.17343 1.75 3.61855 1.75 4.08268V11.0827C1.75 11.5468 1.93437 11.9919 2.26256 12.3201C2.59075 12.6483 3.03587 12.8327 3.5 12.8327H10.5C10.9641 12.8327 11.4092 12.6483 11.7374 12.3201C12.0656 11.9919 12.25 11.5468 12.25 11.0827V4.08268C12.25 3.61855 12.0656 3.17343 11.7374 2.84525C11.4092 2.51706 10.9641 2.33268 10.5 2.33268ZM3.5 3.49935H4.08333V4.08268C4.08333 4.23739 4.14479 4.38577 4.25419 4.49516C4.36358 4.60456 4.51196 4.66602 4.66667 4.66602C4.82138 4.66602 4.96975 4.60456 5.07915 4.49516C5.18854 4.38577 5.25 4.23739 5.25 4.08268V3.49935H8.75V4.08268C8.75 4.23739 8.81146 4.38577 8.92085 4.49516C9.03025 4.60456 9.17862 4.66602 9.33333 4.66602C9.48804 4.66602 9.63642 4.60456 9.74581 4.49516C9.85521 4.38577 9.91667 4.23739 9.91667 4.08268V3.49935H10.5C10.6547 3.49935 10.8031 3.56081 10.9125 3.6702C11.0219 3.7796 11.0833 3.92797 11.0833 4.08268V6.41602H2.91667V4.08268C2.91667 3.92797 2.97812 3.7796 3.08752 3.6702C3.19692 3.56081 3.34529 3.49935 3.5 3.49935ZM10.5 11.666H3.5C3.34529 11.666 3.19692 11.6046 3.08752 11.4952C2.97812 11.3858 2.91667 11.2374 2.91667 11.0827V7.58268H11.0833V11.0827C11.0833 11.2374 11.0219 11.3858 10.9125 11.4952C10.8031 11.6046 10.6547 11.666 10.5 11.666Z" fill="#979797" fill-opacity="0.75"/>
<path id="Vector_2" d="M4.66732 9.91667C4.98948 9.91667 5.25065 9.6555 5.25065 9.33333C5.25065 9.01117 4.98948 8.75 4.66732 8.75C4.34515 8.75 4.08398 9.01117 4.08398 9.33333C4.08398 9.6555 4.34515 9.91667 4.66732 9.91667Z" fill="#979797" fill-opacity="0.75"/>
<path id="Vector_3" d="M9.33268 8.75H6.99935C6.84464 8.75 6.69627 8.81146 6.58687 8.92085C6.47747 9.03025 6.41602 9.17862 6.41602 9.33333C6.41602 9.48804 6.47747 9.63642 6.58687 9.74581C6.69627 9.85521 6.84464 9.91667 6.99935 9.91667H9.33268C9.48739 9.91667 9.63577 9.85521 9.74516 9.74581C9.85456 9.63642 9.91602 9.48804 9.91602 9.33333C9.91602 9.17862 9.85456 9.03025 9.74516 8.92085C9.63577 8.81146 9.48739 8.75 9.33268 8.75Z" fill="#979797" fill-opacity="0.75"/>
</g>
</svg>
