<svg width="19" height="18" viewBox="0 0 19 18" fill="none" xmlns="http://www.w3.org/2000/svg">
<g id="Icon Custom/Export file">
<path id="Vector" d="M12.25 13C11.84 13 11.5 13.34 11.5 13.75V15.25C11.5 15.94 10.94 16.5 10.25 16.5H2.75C2.06 16.5 1.5 15.94 1.5 15.25V3.25C1.5 2.56 2.06 2 2.75 2H6V6.75C6 7.16 6.34 7.5 6.75 7.5H11.5V8.75C11.5 9.16 11.84 9.5 12.25 9.5C12.66 9.5 13 9.16 13 8.75V6.75C13 6.55 12.92 6.36 12.78 6.22L7.28 0.72C7.13948 0.579308 6.94885 0.500175 6.75 0.5H2.75C1.23 0.5 0 1.73 0 3.25V15.25C0 16.77 1.23 18 2.75 18H10.25C11.77 18 13 16.77 13 15.25V13.75C13 13.34 12.66 13 12.25 13ZM7.5 3.06L10.44 6H7.5V3.06Z" fill="white"/>
<path id="Vector 14 (Stroke)" fill-rule="evenodd" clip-rule="evenodd" d="M14.5303 7.46875L18.5607 11.4991L14.5303 15.5294L13.4697 14.4688L15.6893 12.2491H6V10.7491H15.6893L13.4697 8.52941L14.5303 7.46875Z" fill="white"/>
</g>
</svg>
