<svg width="15" height="15" viewBox="0 0 15 15" fill="none" xmlns="http://www.w3.org/2000/svg">
<g id="ph:user-duotone">
<g id="Group">
<path id="Vector" opacity="0.2" d="M10.866 5.75C10.866 6.44223 10.6558 7.11892 10.2618 7.6945C9.86784 8.27007 9.30788 8.71867 8.65274 8.98358C7.9976 9.24849 7.2767 9.3178 6.58121 9.18275C5.88572 9.0477 5.24687 8.71436 4.74544 8.22487C4.24402 7.73539 3.90255 7.11175 3.76421 6.43282C3.62586 5.75388 3.69687 5.05015 3.96823 4.41061C4.2396 3.77107 4.69915 3.22444 5.28876 2.83986C5.87837 2.45527 6.57156 2.25 7.28068 2.25C8.23158 2.25 9.14353 2.61875 9.81592 3.27513C10.4883 3.9315 10.866 4.82174 10.866 5.75Z" fill="#979797" fill-opacity="0.75"/>
<path id="Vector_2" d="M13.0468 12.0933C12.1936 10.6534 10.8788 9.62086 9.34433 9.13141C10.1033 8.69033 10.693 8.01823 11.0228 7.21833C11.3527 6.41842 11.4044 5.53494 11.1701 4.70356C10.9358 3.87217 10.4284 3.13886 9.72582 2.61623C9.02325 2.0936 8.16437 1.81055 7.28106 1.81055C6.39776 1.81055 5.53887 2.0936 4.8363 2.61623C4.13374 3.13886 3.62634 3.87217 3.39203 4.70356C3.15771 5.53494 3.20945 6.41842 3.53928 7.21833C3.86911 8.01823 4.4588 8.69033 5.21779 9.13141C3.68337 9.62032 2.36855 10.6528 1.51534 12.0933C1.48406 12.1431 1.4633 12.1985 1.45431 12.2563C1.44531 12.314 1.44826 12.373 1.46298 12.4296C1.47769 12.4862 1.50388 12.5394 1.53999 12.586C1.5761 12.6326 1.6214 12.6716 1.67323 12.7009C1.72505 12.7301 1.78234 12.7489 1.84173 12.7561C1.90111 12.7634 1.96139 12.759 2.01899 12.7431C2.07659 12.7272 2.13036 12.7003 2.17712 12.6638C2.22388 12.6274 2.26268 12.5821 2.29124 12.5308C3.34668 10.7502 5.21219 9.68703 7.28106 9.68703C9.34993 9.68703 11.2154 10.7502 12.2709 12.5308C12.2994 12.5821 12.3382 12.6274 12.385 12.6638C12.4318 12.7003 12.4855 12.7272 12.5431 12.7431C12.6007 12.759 12.661 12.7634 12.7204 12.7561C12.7798 12.7489 12.8371 12.7301 12.8889 12.7009C12.9407 12.6716 12.986 12.6326 13.0221 12.586C13.0582 12.5394 13.0844 12.4862 13.0991 12.4296C13.1139 12.373 13.1168 12.314 13.1078 12.2563C13.0988 12.1985 13.0781 12.1431 13.0468 12.0933ZM4.14387 5.74953C4.14387 5.14383 4.32786 4.55173 4.67258 4.0481C5.0173 3.54448 5.50726 3.15195 6.08051 2.92015C6.65376 2.68836 7.28454 2.62771 7.8931 2.74588C8.50165 2.86405 9.06065 3.15572 9.49939 3.58402C9.93814 4.01232 10.2369 4.558 10.358 5.15207C10.479 5.74614 10.4169 6.3619 10.1795 6.9215C9.942 7.4811 9.5399 7.9594 9.02399 8.29591C8.50808 8.63242 7.90154 8.81203 7.28106 8.81203C6.4493 8.81117 5.65186 8.48823 5.06371 7.91409C4.47557 7.33995 4.14476 6.56149 4.14387 5.74953Z" fill="#979797" fill-opacity="0.75"/>
</g>
</g>
</svg>
