<svg width="14" height="14" viewBox="0 0 14 14" fill="none" xmlns="http://www.w3.org/2000/svg">
<g id="ri:time-line">
<path id="Vector" d="M6.99935 12.8327C3.7776 12.8327 1.16602 10.2211 1.16602 6.99935C1.16602 3.7776 3.7776 1.16602 6.99935 1.16602C10.2211 1.16602 12.8327 3.7776 12.8327 6.99935C12.8327 10.2211 10.2211 12.8327 6.99935 12.8327ZM6.99935 11.666C8.23703 11.666 9.42401 11.1744 10.2992 10.2992C11.1744 9.42401 11.666 8.23703 11.666 6.99935C11.666 5.76167 11.1744 4.57469 10.2992 3.69952C9.42401 2.82435 8.23703 2.33268 6.99935 2.33268C5.76167 2.33268 4.57469 2.82435 3.69952 3.69952C2.82435 4.57469 2.33268 5.76167 2.33268 6.99935C2.33268 8.23703 2.82435 9.42401 3.69952 10.2992C4.57469 11.1744 5.76167 11.666 6.99935 11.666ZM7.58268 6.99935H9.91602V8.16602H6.41602V4.08268H7.58268V6.99935Z" fill="#CCCCCC"/>
</g>
</svg>
